<svg xmlns="http://www.w3.org/2000/svg">
  <!-- Google Material Icons, Apache-2.0. See material-icons.LICENSE.txt. -->
  <symbol id="filter-list" viewBox="0 0 24 24">
    <path d="M10 18h4v-2h-4v2zM3 6v2h18V6H3zm3 7h12v-2H6v2z"/>
  </symbol>
  <symbol id="more-vert" viewBox="0 0 24 24">
    <path d="M12 8c1.1 0 2-.9 2-2s-.9-2-2-2-2 .9-2 2 .9 2 2 2zm0 2c-1.1 0-2 .9-2 2s.9 2 2 2 2-.9 2-2-.9-2-2-2zm0 6c-1.1 0-2 .9-2 2s.9 2 2 2 2-.9 2-2-.9-2-2-2z"/>
  </symbol>
  <symbol id="arrow-upward" viewBox="0 0 24 24">
    <path d="M4 12l1.41 1.41L11 7.83V20h2V7.83l5.58 5.59L20 12l-8-8-8 8z"/>
  </symbol>
  <!-- Menu icons from google/material-design-icons classic 24px SVGs. -->
  <symbol id="arrow-downward" viewBox="0 0 24 24">
    <path d="M20 12l-1.41-1.41L13 16.17V4h-2v12.17l-5.58-5.59L4 12l8 8 8-8z"/>
  </symbol>
  <symbol id="check" viewBox="0 0 24 24">
    <path d="M9 16.17L4.83 12l-1.42 1.41L9 19 21 7l-1.41-1.41z"/>
  </symbol>
  <symbol id="push-pin" viewBox="0 0 24 24">
    <path d="M16 9V4h1c.55 0 1-.45 1-1s-.45-1-1-1H7c-.55 0-1 .45-1 1s.45 1 1 1h1v5c0 1.66-1.34 3-3 3v2h5.97v7l1 1 1-1v-7H19v-2c-1.66 0-3-1.34-3-3z" fill-rule="evenodd"/>
  </symbol>
  <symbol id="fit-screen" viewBox="0 0 24 24">
    <path d="M17 4h3c1.1 0 2 .9 2 2v2h-2V6h-3V4zM4 8V6h3V4H4c-1.1 0-2 .9-2 2v2h2zm16 8v2h-3v2h3c1.1 0 2-.9 2-2v-2h-2zM7 18H4v-2H2v2c0 1.1.9 2 2 2h3v-2zM18 8H6v8h12V8z"/>
  </symbol>
  <symbol id="unfold-more" viewBox="0 0 24 24">
    <path d="M12 5.83L15.17 9l1.41-1.41L12 3 7.41 7.59 8.83 9 12 5.83zm0 12.34L8.83 15l-1.41 1.41L12 21l4.59-4.59L15.17 15 12 18.17z"/>
  </symbol>
  <symbol id="unfold-less" viewBox="0 0 24 24">
    <path d="M7.41 18.59 8.83 20 12 16.83 15.17 20l1.41-1.41L12 14l-4.59 4.59zm9.18-13.18L15.17 4 12 7.17 8.83 4 7.41 5.41 12 10l4.59-4.59z"/>
  </symbol>
  <symbol id="view-stream" viewBox="0 0 24 24">
    <path d="M3 17v-2c0-1.1.9-2 2-2h14c1.1 0 2 .9 2 2v2c0 1.1-.9 2-2 2H5c-1.1 0-2-.9-2-2zM3 7v2c0 1.1.9 2 2 2h14c1.1 0 2-.9 2-2V7c0-1.1-.9-2-2-2H5c-1.1 0-2 .9-2 2z"/>
  </symbol>
  <symbol id="account-tree" viewBox="0 0 24 24">
    <path d="M22 11V3h-7v3H9V3H2v8h7V8h2v10h4v3h7v-8h-7v3h-2V8h2v3z"/>
  </symbol>
  <symbol id="view-column" viewBox="0 0 24 24">
    <path d="M14.67 5v14H9.33V5h5.34zm1 14H21V5h-5.33v14zM8.33 19V5H3v14h5.33z"/>
  </symbol>
  <symbol id="restart-alt" viewBox="0 0 24 24">
    <path d="M12 5V2L8 6l4 4V7c3.31 0 6 2.69 6 6 0 2.97-2.17 5.43-5 5.91v2.02c3.95-.49 7-3.85 7-7.93 0-4.42-3.58-8-8-8z"/>
    <path d="M6 13c0-1.65.67-3.15 1.76-4.24L6.34 7.34C4.9 8.79 4 10.79 4 13c0 4.08 3.05 7.44 7 7.93v-2.02C8.17 18.43 6 15.97 6 13z"/>
  </symbol>
  <symbol id="close" viewBox="0 0 24 24">
    <path d="M18.3 5.71 12 12l6.3 6.29-1.41 1.42-6.3-6.3-6.3 6.3-1.41-1.42L9.17 12 2.88 5.71 4.29 4.29l6.3 6.3 6.3-6.3z"/>
  </symbol>
  <symbol id="search" viewBox="0 0 24 24">
    <path d="M9.5 3a6.5 6.5 0 1 0 3.98 11.64L19.49 20 21 18.49l-5.36-5.01A6.5 6.5 0 0 0 9.5 3zm0 2a4.5 4.5 0 1 1 0 9 4.5 4.5 0 0 1 0-9z"/>
  </symbol>
  <symbol id="drag-indicator" viewBox="0 0 24 24">
    <path d="M11 18c0 1.1-.9 2-2 2s-2-.9-2-2 .9-2 2-2 2 .9 2 2zm-2-8c-1.1 0-2 .9-2 2s.9 2 2 2 2-.9 2-2-.9-2-2-2zm0-6C7.9 4 7 4.9 7 6s.9 2 2 2 2-.9 2-2-.9-2-2-2zm6 4c1.1 0 2-.9 2-2s-.9-2-2-2-2 .9-2 2 .9 2 2 2zm0 2c-1.1 0-2 .9-2 2s.9 2 2 2 2-.9 2-2-.9-2-2-2zm0 6c-1.1 0-2 .9-2 2s.9 2 2 2 2-.9 2-2-.9-2-2-2z"/>
  </symbol>
  <symbol id="settings" viewBox="0 0 24 24">
    <path d="M19.43 12.98c.04-.32.07-.65.07-.98s-.03-.66-.08-.98l2.11-1.65c.19-.15.24-.42.12-.64l-2-3.46c-.12-.22-.37-.31-.6-.22l-2.49 1a7.3 7.3 0 0 0-1.69-.98L14.5 2.42A.49.49 0 0 0 14 2h-4a.49.49 0 0 0-.49.42l-.38 2.65c-.61.25-1.17.59-1.69.98l-2.49-1a.49.49 0 0 0-.6.22l-2 3.46c-.13.22-.07.49.12.64l2.11 1.65c-.05.32-.09.66-.09.98s.03.66.08.98l-2.11 1.65a.5.5 0 0 0-.12.64l2 3.46c.12.22.37.31.6.22l2.49-1c.52.4 1.09.73 1.69.98l.38 2.65c.04.24.24.42.49.42h4c.25 0 .46-.18.49-.42l.38-2.65c.61-.25 1.17-.58 1.69-.98l2.49 1c.23.08.48 0 .6-.22l2-3.46a.5.5 0 0 0-.12-.64l-2-1.65zM12 15.5A3.5 3.5 0 1 1 12 8a3.5 3.5 0 0 1 0 7.5z"/>
  </symbol>
</svg>
