<svg xmlns="http://www.w3.org/2000/svg">
  <!--
    Google Material Icons (classic filled, 24px), Apache-2.0.
    Source: https://github.com/google/material-design-icons
    This curated sprite is the canonical icon source for both ScrapeX UIs.
  -->
  <symbol id="menu-open" viewBox="0 0 24 24">
    <path d="M3 18h13v-2H3v2zm0-5h10v-2H3v2zm0-7v2h13V6H3zm15.59 1.41L17.17 6l-5 5 5 5 1.41-1.41L15 11l3.59-3.59z"/>
  </symbol>
  <symbol id="storage" viewBox="0 0 24 24">
    <path d="M2 20h20v-4H2v4zm2-3h2v2H4v-2zM2 4v4h20V4H2zm4 3H4V5h2v2zm-4 7h20v-4H2v4zm2-3h2v2H4v-2z"/>
  </symbol>
  <symbol id="trending-up" viewBox="0 0 24 24">
    <path d="M16 6l2.29 2.29-4.88 4.88-4-4L2 16.59 3.41 18l6-6 4 4 6.3-6.29L22 12V6z"/>
  </symbol>
  <symbol id="history" viewBox="0 0 24 24">
    <path d="M13 3c-4.97 0-9 4.03-9 9H1l4 4 4-4H6c0-3.87 3.13-7 7-7s7 3.13 7 7-3.13 7-7 7c-1.93 0-3.68-.79-4.95-2.05l-1.42 1.42A8.96 8.96 0 0 0 13 21c4.97 0 9-4.03 9-9s-4.03-9-9-9zm-1 5v5l4.28 2.54.72-1.21-3.5-2.08V8H12z"/>
  </symbol>
  <symbol id="play-circle" viewBox="0 0 24 24">
    <path d="M12 2C6.48 2 2 6.48 2 12s4.48 10 10 10 10-4.48 10-10S17.52 2 12 2zm-2 15V7l7 5-7 5z"/>
  </symbol>
  <symbol id="schedule" viewBox="0 0 24 24">
    <path d="M11.99 2C6.47 2 2 6.48 2 12s4.47 10 9.99 10C17.52 22 22 17.52 22 12S17.52 2 11.99 2zM12 20a8 8 0 1 1 0-16 8 8 0 0 1 0 16zm.5-13H11v6l5.25 3.15.75-1.23-4.5-2.67z"/>
  </symbol>
  <symbol id="sync" viewBox="0 0 24 24">
    <path d="M12 4V1L8 5l4 4V6c3.31 0 6 2.69 6 6 0 1.01-.25 1.97-.69 2.8l1.46 1.46A7.93 7.93 0 0 0 20 12c0-4.42-3.58-8-8-8zm0 14c-3.31 0-6-2.69-6-6 0-1.01.25-1.97.69-2.8L5.23 7.74A7.93 7.93 0 0 0 4 12c0 4.42 3.58 8 8 8v3l4-4-4-4v3z"/>
  </symbol>
  <symbol id="file-download" viewBox="0 0 24 24">
    <path d="M19 9h-4V3H9v6H5l7 7 7-7zM5 18v2h14v-2H5z"/>
  </symbol>
  <symbol id="description" viewBox="0 0 24 24">
    <path d="M14 2H6c-1.1 0-1.99.9-1.99 2L4 20c0 1.1.89 2 1.99 2H18c1.1 0 2-.9 2-2V8l-6-6zm2 16H8v-2h8v2zm0-4H8v-2h8v2zm-3-5V3.5L18.5 9H13z"/>
  </symbol>
  <symbol id="language" viewBox="0 0 24 24">
    <path d="M12 2C6.48 2 2 6.48 2 12s4.48 10 10 10 10-4.48 10-10S17.52 2 12 2zm6.9 6h-2.95a15.65 15.65 0 0 0-1.45-3.5A8.03 8.03 0 0 1 18.9 8zM12 4c.83 1.2 1.48 2.54 1.86 4h-3.72A15.65 15.65 0 0 1 12 4zM4.26 14A7.82 7.82 0 0 1 4 12c0-.69.1-1.36.26-2h3.38c-.08.66-.14 1.32-.14 2s.06 1.34.14 2H4.26zm.84 2h2.95c.32 1.25.81 2.45 1.45 3.5A8.03 8.03 0 0 1 5.1 16zm2.95-8H5.1a8.03 8.03 0 0 1 4.4-3.5A15.65 15.65 0 0 0 8.05 8zM12 20a15.65 15.65 0 0 1-1.86-4h3.72A15.65 15.65 0 0 1 12 20zm2.27-6H9.73c-.09-.66-.16-1.32-.16-2s.07-1.35.16-2h4.54c.09.65.16 1.32.16 2s-.07 1.34-.16 2zm.23 5.5a15.65 15.65 0 0 0 1.45-3.5h2.95a8.03 8.03 0 0 1-4.4 3.5zm1.86-5.5c.08-.66.14-1.32.14-2s-.06-1.34-.14-2h3.38c.16.64.26 1.31.26 2s-.1 1.36-.26 2h-3.38z"/>
  </symbol>
  <symbol id="link" viewBox="0 0 24 24">
    <path d="M3.9 12c0-1.71 1.39-3.1 3.1-3.1h4V7H7a5 5 0 0 0 0 10h4v-1.9H7A3.1 3.1 0 0 1 3.9 12zM8 13h8v-2H8v2zm9-6h-4v1.9h4a3.1 3.1 0 1 1 0 6.2h-4V17h4a5 5 0 0 0 0-10z"/>
  </symbol>
  <symbol id="insert-drive-file" viewBox="0 0 24 24">
    <path d="M6 2c-1.1 0-2 .9-2 2v16c0 1.1.9 2 2 2h12c1.1 0 2-.9 2-2V8l-6-6H6zm7 7V3.5L18.5 9H13z"/>
  </symbol>
  <symbol id="shopping-cart" viewBox="0 0 24 24">
    <path d="M7 18c-1.1 0-1.99.9-1.99 2S5.9 22 7 22s2-.9 2-2-.9-2-2-2zM1 2v2h2l3.6 7.59-1.35 2.45c-.16.28-.25.61-.25.96 0 1.1.9 2 2 2h12v-2H7.42c-.14 0-.25-.11-.25-.25l.03-.12.9-1.63h7.45c.75 0 1.41-.41 1.75-1.03L20.88 5H5.21l-.94-2H1zm16 16c-1.1 0-1.99.9-1.99 2s.89 2 1.99 2 2-.9 2-2-.9-2-2-2z"/>
  </symbol>
  <symbol id="file-upload" viewBox="0 0 24 24">
    <path d="M9 16h6v-6h4l-7-7-7 7h4v6zm-4 2h14v2H5v-2z"/>
  </symbol>
  <symbol id="photo-camera" viewBox="0 0 24 24">
    <path d="M9 2 7.17 4H4c-1.1 0-2 .9-2 2v12c0 1.1.9 2 2 2h16c1.1 0 2-.9 2-2V6c0-1.1-.9-2-2-2h-3.17L15 2H9zm3 15a5 5 0 1 1 0-10 5 5 0 0 1 0 10zm3.2-5a3.2 3.2 0 1 1-6.4 0 3.2 3.2 0 0 1 6.4 0z"/>
  </symbol>
  <symbol id="open-in-new" viewBox="0 0 24 24">
    <path d="M19 19H5V5h7V3H5c-1.11 0-2 .9-2 2v14c0 1.1.89 2 2 2h14c1.1 0 2-.9 2-2v-7h-2v7zM14 3v2h3.59l-9.83 9.83 1.41 1.41L19 6.41V10h2V3h-7z"/>
  </symbol>
  <symbol id="arrow-back" viewBox="0 0 24 24">
    <path d="M20 11H7.83l5.59-5.59L12 4l-8 8 8 8 1.41-1.41L7.83 13H20v-2z"/>
  </symbol>
  <symbol id="info" viewBox="0 0 24 24">
    <path d="M11 17h2v-6h-2v6zm1-15C6.48 2 2 6.48 2 12s4.48 10 10 10 10-4.48 10-10S17.52 2 12 2zm0 18a8 8 0 1 1 0-16 8 8 0 0 1 0 16zM11 9h2V7h-2v2z"/>
  </symbol>
  <symbol id="tune" viewBox="0 0 24 24">
    <path d="M3 17v2h6v-2H3zM3 5v2h10V5H3zm10 16v-2h8v-2h-8v-2h-2v6h2zM7 9v2H3v2h4v2h2V9H7zm14 4v-2H11v2h10zm-6-4h2V7h4V5h-4V3h-2v6z"/>
  </symbol>
  <symbol id="security" viewBox="0 0 24 24">
    <path d="M12 1 3 5v6c0 5.55 3.84 10.74 9 12 5.16-1.26 9-6.45 9-12V5l-9-4zm0 10.99h7c-.53 4.12-3.28 7.79-7 8.94V12H5V6.3l7-3.11v8.8z"/>
  </symbol>
  <symbol id="dns" viewBox="0 0 24 24">
    <path d="M20 13H4c-1.1 0-2 .9-2 2v4c0 1.1.9 2 2 2h16c1.1 0 2-.9 2-2v-4c0-1.1-.9-2-2-2zM7 19a2 2 0 1 1 0-4 2 2 0 0 1 0 4zM20 3H4c-1.1 0-2 .9-2 2v4c0 1.1.9 2 2 2h16c1.1 0 2-.9 2-2V5c0-1.1-.9-2-2-2zM7 9a2 2 0 1 1 0-4 2 2 0 0 1 0 4z"/>
  </symbol>
  <symbol id="chevron-right" viewBox="0 0 24 24">
    <path d="M9.29 6.71a1 1 0 0 0 0 1.41L13.17 12l-3.88 3.88a1 1 0 1 0 1.42 1.41l4.58-4.58a1 1 0 0 0 0-1.42l-4.58-4.58a1 1 0 0 0-1.42 0z"/>
  </symbol>
  <symbol id="filter-list" viewBox="0 0 24 24">
    <path d="M10 18h4v-2h-4v2zM3 6v2h18V6H3zm3 7h12v-2H6v2z"/>
  </symbol>
  <symbol id="more-vert" viewBox="0 0 24 24">
    <path d="M12 8c1.1 0 2-.9 2-2s-.9-2-2-2-2 .9-2 2 .9 2 2 2zm0 2c-1.1 0-2 .9-2 2s.9 2 2 2 2-.9 2-2-.9-2-2-2zm0 6c-1.1 0-2 .9-2 2s.9 2 2 2 2-.9 2-2-.9-2-2-2z"/>
  </symbol>
  <symbol id="arrow-upward" viewBox="0 0 24 24">
    <path d="M4 12l1.41 1.41L11 7.83V20h2V7.83l5.58 5.59L20 12l-8-8-8 8z"/>
  </symbol>
  <symbol id="arrow-downward" viewBox="0 0 24 24">
    <path d="M20 12l-1.41-1.41L13 16.17V4h-2v12.17l-5.58-5.59L4 12l8 8 8-8z"/>
  </symbol>
  <symbol id="check" viewBox="0 0 24 24">
    <path d="M9 16.17 4.83 12l-1.42 1.41L9 19 21 7l-1.41-1.41z"/>
  </symbol>
  <symbol id="push-pin" viewBox="0 0 24 24">
    <path d="M16 9V4h1c.55 0 1-.45 1-1s-.45-1-1-1H7c-.55 0-1 .45-1 1s.45 1 1 1h1v5c0 1.66-1.34 3-3 3v2h5.97v7l1 1 1-1v-7H19v-2c-1.66 0-3-1.34-3-3z" fill-rule="evenodd"/>
  </symbol>
  <symbol id="fit-screen" viewBox="0 0 24 24">
    <path d="M17 4h3c1.1 0 2 .9 2 2v2h-2V6h-3V4zM4 8V6h3V4H4c-1.1 0-2 .9-2 2v2h2zm16 8v2h-3v2h3c1.1 0 2-.9 2-2v-2h-2zM7 18H4v-2H2v2c0 1.1.9 2 2 2h3v-2zM18 8H6v8h12V8z"/>
  </symbol>
  <symbol id="unfold-more" viewBox="0 0 24 24">
    <path d="M12 5.83 15.17 9l1.41-1.41L12 3 7.41 7.59 8.83 9 12 5.83zm0 12.34L8.83 15l-1.41 1.41L12 21l4.59-4.59L15.17 15 12 18.17z"/>
  </symbol>
  <symbol id="unfold-less" viewBox="0 0 24 24">
    <path d="M7.41 18.59 8.83 20 12 16.83 15.17 20l1.41-1.41L12 14l-4.59 4.59zm9.18-13.18L15.17 4 12 7.17 8.83 4 7.41 5.41 12 10l4.59-4.59z"/>
  </symbol>
  <symbol id="view-stream" viewBox="0 0 24 24">
    <path d="M3 17v-2c0-1.1.9-2 2-2h14c1.1 0 2 .9 2 2v2c0 1.1-.9 2-2 2H5c-1.1 0-2-.9-2-2zM3 7v2c0 1.1.9 2 2 2h14c1.1 0 2-.9 2-2V7c0-1.1-.9-2-2-2H5c-1.1 0-2 .9-2 2z"/>
  </symbol>
  <symbol id="account-tree" viewBox="0 0 24 24">
    <path d="M22 11V3h-7v3H9V3H2v8h7V8h2v10h4v3h7v-8h-7v3h-2V8h2v3z"/>
  </symbol>
  <symbol id="view-column" viewBox="0 0 24 24">
    <path d="M14.67 5v14H9.33V5h5.34zm1 14H21V5h-5.33v14zM8.33 19V5H3v14h5.33z"/>
  </symbol>
  <symbol id="restart-alt" viewBox="0 0 24 24">
    <path d="M12 5V2L8 6l4 4V7c3.31 0 6 2.69 6 6 0 2.97-2.17 5.43-5 5.91v2.02c3.95-.49 7-3.85 7-7.93 0-4.42-3.58-8-8-8z"/>
    <path d="M6 13c0-1.65.67-3.15 1.76-4.24L6.34 7.34C4.9 8.79 4 10.79 4 13c0 4.08 3.05 7.44 7 7.93v-2.02C8.17 18.43 6 15.97 6 13z"/>
  </symbol>
  <symbol id="close" viewBox="0 0 24 24">
    <path d="M18.3 5.71 12 12l6.3 6.29-1.41 1.42-6.3-6.3-6.3 6.3-1.41-1.42L9.17 12 2.88 5.71 4.29 4.29l6.3 6.3 6.3-6.3z"/>
  </symbol>
  <symbol id="search" viewBox="0 0 24 24">
    <path d="M9.5 3a6.5 6.5 0 1 0 3.98 11.64L19.49 20 21 18.49l-5.36-5.01A6.5 6.5 0 0 0 9.5 3zm0 2a4.5 4.5 0 1 1 0 9 4.5 4.5 0 0 1 0-9z"/>
  </symbol>
  <symbol id="drag-indicator" viewBox="0 0 24 24">
    <path d="M11 18c0 1.1-.9 2-2 2s-2-.9-2-2 .9-2 2-2 2 .9 2 2zm-2-8c-1.1 0-2 .9-2 2s.9 2 2 2 2-.9 2-2-.9-2-2-2zm0-6C7.9 4 7 4.9 7 6s.9 2 2 2 2-.9 2-2-.9-2-2-2zm6 4c1.1 0 2-.9 2-2s-.9-2-2-2-2 .9-2 2 .9 2 2 2zm0 2c-1.1 0-2 .9-2 2s.9 2 2 2 2-.9 2-2-.9-2-2-2zm0 6c-1.1 0-2 .9-2 2s.9 2 2 2 2-.9 2-2-.9-2-2-2z"/>
  </symbol>
  <symbol id="settings" viewBox="0 0 24 24">
    <path d="M19.43 12.98c.04-.32.07-.65.07-.98s-.03-.66-.08-.98l2.11-1.65c.19-.15.24-.42.12-.64l-2-3.46c-.12-.22-.37-.31-.6-.22l-2.49 1a7.3 7.3 0 0 0-1.69-.98L14.5 2.42A.49.49 0 0 0 14 2h-4a.49.49 0 0 0-.49.42l-.38 2.65c-.61.25-1.17.59-1.69.98l-2.49-1a.49.49 0 0 0-.6.22l-2 3.46c-.13.22-.07.49.12.64l2.11 1.65c-.05.32-.09.66-.09.98s.03.66.08.98l-2.11 1.65a.5.5 0 0 0-.12.64l2 3.46c.12.22.37.31.6.22l2.49-1c.52.4 1.09.73 1.69.98l.38 2.65c.04.24.24.42.49.42h4c.25 0 .46-.18.49-.42l.38-2.65c.61-.25 1.17-.58 1.69-.98l2.49 1c.23.08.48 0 .6-.22l2-3.46a.5.5 0 0 0-.12-.64l-2-1.65zM12 15.5A3.5 3.5 0 1 1 12 8a3.5 3.5 0 0 1 0 7.5z"/>
  </symbol>
</svg>
